<svg xmlns="http://www.w3.org/2000/svg" width="512" height="512" fill="none" viewBox="0 0 512 512">
  <style>
    @media (prefers-color-scheme: dark) {
      .color-scheme { fill: #FFF }
    }

    @media (prefers-color-scheme: light) {
      .color-scheme { fill: #000 }
    }
  </style>
  <path fill="#FF3158" fill-rule="evenodd" d="M213.698 4.996c2.833-2.038 7.44-2.136 10.316-.21l87.756 59.047c2.911 2.019 3.628 6.004 1.62 8.92l-61.964 85.28c-2.031 2.809-6.394 4.308-9.788 3.397L72.109 114.493c-3.35-.982-3.818-3.517-.998-5.625zM95.367 159.164l61.705 85.513c2.025 2.794 2.114 7.453.174 10.345L60.367 402.328c-1.981 2.935-4.502 2.584-5.626-.728L.38 233.401c-1.09-3.334.252-7.782 2.953-9.905l83.108-65.538c2.805-2.135 6.79-1.569 8.927 1.206" clip-rule="evenodd"/>
  <path class="color-scheme" fill="#000" fill-rule="evenodd" d="m348.608 36.81 7.909 176.303c.113 3.502 2.924 7.173 6.199 8.279l100.027 32.768c3.373 1 6.909-.934 7.944-4.26l28.842-102.04c.922-3.328-.587-7.74-3.407-9.778L353.629 34.109c-2.869-2.04-5.123-.829-5.021 2.701M507.596 276.609 342.918 338.65c-3.246 1.206-5.891 5.023-5.891 8.491l-.132 105.552c.076 3.521 2.964 6.345 6.491 6.248l105.591-4.008c3.461-.133 7.14-2.934 8.214-6.239l54.523-168.099c1.035-3.392-.838-5.183-4.118-3.986M329.449 502.588 219.796 364.602c-2.143-2.723-6.605-4.105-9.886-3.033l-100.089 32.46a6.4 6.4 0 0 0-3.922 8.167l36.387 99.539c1.229 3.237 5.027 5.89 8.496 5.89l176.187.106c3.506-.057 4.644-2.339 2.48-5.143" clip-rule="evenodd"/>
</svg>