<?xml version="1.0" encoding="utf-8"?>
<!-- Generator: Adobe Illustrator 23.0.6, SVG Export Plug-In . SVG Version: 6.00 Build 0)  -->
<svg version="1.1" id="Layer_1" xmlns="http://www.w3.org/2000/svg" xmlns:xlink="http://www.w3.org/1999/xlink" x="0px" y="0px"
	 viewBox="0 0 88 86" style="enable-background:new 0 0 88 86;" xml:space="preserve">
<style type="text/css">
	.st0{fill:#6D6D6D;}
	.st1{fill:#0E0708;}
	.st2{fill:#999999;}
</style>
<g>
	<path class="st0" d="M69.27,7.58L44,14.65L18.73,7.58L8.62,10.41v65.18l10.11,2.83L44,71.35l25.27,7.08l10.11-2.83V10.41
		L69.27,7.58z M59.16,56.21L44,51.96l-15.16,4.25V29.79L44,34.04l15.16-4.25V56.21z"/>
	<g>
		<polygon class="st1" points="44,20.31 44,34.04 18.73,26.96 18.73,78.42 8.62,75.59 8.62,10.41 		"/>
		<polygon class="st1" points="59.16,61.87 44,57.62 44,71.35 69.27,78.42 69.27,26.96 59.16,29.79 		"/>
	</g>
	<g>
		<polygon class="st2" points="69.27,7.58 79.38,10.41 44,20.31 8.62,10.41 18.73,7.58 44,14.65 		"/>
		<polygon class="st2" points="44,51.96 59.16,56.21 59.16,61.87 44,57.62 28.84,61.87 28.84,56.21 		"/>
	</g>
</g>
</svg>
