<svg version="1.1" id="Layer_1" xmlns="http://www.w3.org/2000/svg" xmlns:xlink="http://www.w3.org/1999/xlink" x="0px" y="0px"
	 viewBox="0 0 230.05 49.75" style="enable-background:new 0 0 230.05 49.75;" xml:space="preserve">
<rect width="230.05" height="49.75" fill="none"/>
<path d="M218.023 18.3687C217.613 18.3687 217.227 18.2904 216.866 18.1327C216.505 17.975 216.19 17.7539 215.919 17.4693C215.649 17.1856 215.435 16.8524 215.28 16.4716C215.125 16.0908 215.047 15.6773 215.047 15.231C215.047 14.7837 215.125 14.3702 215.28 13.9894C215.435 13.6086 215.649 13.2754 215.919 12.9918C216.19 12.7071 216.505 12.486 216.866 12.3283C217.227 12.1716 217.613 12.0923 218.023 12.0923C218.424 12.0923 218.804 12.1716 219.165 12.3283C219.526 12.486 219.842 12.7071 220.113 12.9918C220.383 13.2754 220.598 13.6086 220.758 13.9894C220.919 14.3702 220.999 14.7837 220.999 15.231C220.999 15.6773 220.919 16.0908 220.758 16.4716C220.598 16.8524 220.383 17.1856 220.113 17.4693C219.842 17.7539 219.526 17.975 219.165 18.1327C218.804 18.2904 218.424 18.3687 218.023 18.3687ZM218.023 17.7588C218.364 17.7588 218.677 17.6934 218.963 17.5615C219.249 17.4296 219.493 17.2541 219.699 17.0359C219.904 16.8177 220.065 16.5658 220.18 16.2812C220.295 15.9976 220.352 15.703 220.352 15.3986V15.0634C220.352 14.758 220.295 14.4644 220.18 14.1798C220.065 13.8952 219.904 13.6443 219.699 13.4251C219.493 13.2069 219.249 13.0324 218.963 12.8995C218.677 12.7686 218.364 12.7022 218.023 12.7022C217.682 12.7022 217.37 12.7686 217.084 12.8995C216.798 13.0324 216.553 13.2069 216.347 13.4251C216.142 13.6443 215.981 13.8952 215.867 14.1798C215.751 14.4644 215.694 14.758 215.694 15.0634V15.3986C215.694 15.703 215.751 15.9976 215.867 16.2812C215.981 16.5658 216.142 16.8177 216.347 17.0359C216.553 17.254 216.798 17.4296 217.084 17.5615C217.37 17.6934 217.682 17.7588 218.023 17.7588ZM217.497 16.8752H216.896V13.6919H218.249C218.549 13.6919 218.785 13.7811 218.955 13.9586C219.125 14.1362 219.21 14.3672 219.21 14.6518C219.21 14.8958 219.156 15.0931 219.045 15.2459C218.934 15.3986 218.795 15.5097 218.624 15.5811L219.361 16.8752H218.685L218.023 15.6574H217.497V16.8752V16.8752ZM218.218 15.1695C218.449 15.1695 218.565 15.0634 218.565 14.8502V14.515C218.565 14.3018 218.449 14.1947 218.218 14.1947H217.497V15.1695H218.218Z" fill="#242424"/>
<path d="M45.0916 35.3261V26.248L44.7783 20.9869H44.9872L47.1806 25.6291L52.1943 34.8103L57.2079 25.6291L59.4014 20.9869H59.6103L59.297 26.248V35.3261H64.7284V12.9404H58.6703L52.1943 25.1133L45.8228 12.9404H39.6602V35.3261H45.0916Z" fill="#242424"/>
<path d="M203.421 29.6526C203.421 33.3664 205.405 35.3264 209.27 35.3264H212.613V30.6842H208.957V20.8841H212.821V16.345H208.434V12.1155H203.316V29.6526H203.421Z" fill="#242424"/>
<path d="M201.483 16.448C201.483 16.448 201.378 16.448 200.543 16.448C197.409 16.448 195.947 18.5112 195.424 19.9554C195.32 19.9554 195.216 19.9554 195.216 19.9554V16.448H189.68V35.3262H195.216C195.216 35.3262 195.216 24.9071 195.216 24.5976C195.216 23.4629 195.633 22.7407 196.156 22.2249C197.096 21.2965 199.08 21.0902 201.378 21.0902C201.483 19.2333 201.483 16.448 201.483 16.448Z" fill="#242424"/>
<path d="M146.532 16.448C146.532 16.448 146.427 16.448 145.591 16.448C142.458 16.448 140.996 18.5112 140.473 19.9554C140.369 19.9554 140.264 19.9554 140.264 19.9554V16.448H134.729V35.3262H140.264C140.264 35.3262 140.264 24.9071 140.264 24.5976C140.264 23.4629 140.682 22.7407 141.204 22.2249C142.145 21.2965 144.129 21.0902 146.427 21.0902C146.531 19.2333 146.532 16.448 146.532 16.448Z" fill="#242424"/>
<path d="M114.047 26.1449C114.047 19.9554 117.389 15.9321 123.239 15.9321C129.819 15.9321 132.43 20.5743 132.43 25.8355V27.486H119.792V27.6923C119.792 29.8587 120.941 31.4061 124.179 31.4061C126.477 31.4061 127.834 30.3745 128.983 29.0334L131.804 32.4377C130.028 34.3977 127.103 35.6356 123.552 35.6356C117.494 35.8419 114.047 32.4377 114.047 26.1449ZM119.792 24.0817V24.3912H126.685V24.0817C126.685 21.7091 125.641 20.1617 123.343 20.1617C121.15 20.0585 119.792 21.6059 119.792 24.0817Z" fill="#242424"/>
<path d="M169.076 26.1449C169.076 19.8522 172.523 15.9321 178.268 15.9321C184.013 15.9321 187.46 19.8522 187.46 26.1449C187.46 32.4377 184.013 35.7388 178.268 35.7388C172.523 35.7388 169.076 32.4377 169.076 26.1449ZM181.819 27.5892V24.1849C181.819 21.7091 180.566 20.368 178.372 20.368C176.179 20.368 174.925 21.8122 174.925 24.1849V27.5892C174.925 30.065 176.179 31.4061 178.372 31.4061C180.566 31.4061 181.819 30.065 181.819 27.5892Z" fill="#242424"/>
<path d="M108.911 12.1155H103.897V14.385C103.897 15.7261 103.479 16.4482 101.913 16.4482H100.555V20.9872H103.375V29.6526C103.375 33.3664 105.359 35.3264 109.224 35.3264H112.567V30.6842H108.911V20.8841H112.775V16.345H108.911V12.1155Z" fill="#242424"/>
<path d="M95.1237 12.1155H90.11V14.385C90.11 15.7261 89.6922 16.4482 88.1254 16.4482H86.7676V20.9872H89.5878V29.6526C89.5878 33.3664 91.5723 35.3264 95.437 35.3264H98.7794V30.6842H95.1237V20.8841H98.9883V16.345H95.1237V12.1155Z" fill="#242424"/>
<path d="M159.57 16.0352C157.063 16.0352 154.87 17.5826 154.243 19.7489H154.034V16.4478H148.498V40.9998H154.034V32.0249H154.243C154.765 34.0881 156.959 35.7387 159.57 35.7387C164.584 35.7387 167.195 32.747 167.195 26.1448C167.195 19.5426 164.584 16.0352 159.57 16.0352ZM161.346 27.8985C161.346 30.3743 159.779 31.3028 157.69 31.3028C155.601 31.3028 154.034 30.2712 154.034 28.4143V23.2563C154.034 21.5026 155.601 20.3679 157.69 20.3679C159.779 20.3679 161.346 21.9153 161.346 24.3911V27.8985Z" fill="#242424"/>
<path d="M83.2164 35.326C81.2318 35.326 79.7695 33.9849 79.4562 31.9217H79.2473C78.6206 34.3976 76.4271 35.7387 73.5024 35.7387C69.5333 35.7387 67.3398 33.4691 67.3398 30.0649C67.3398 25.9385 70.5778 23.9785 75.8004 23.9785H78.9339V23.3595C78.9339 21.5026 77.9939 20.2647 75.6959 20.2647C73.5025 20.2647 72.3535 21.3995 71.4134 22.5342L68.071 19.7489C69.6378 17.4794 71.9357 16.0352 76.0093 16.0352C81.5452 16.0352 84.4698 18.511 84.4698 23.1532V30.787H86.3499V35.4292H83.2164V35.326ZM78.9339 29.4459V27.1764H76.2182C74.0247 27.1764 72.9802 28.0017 72.9802 29.3428V29.8586C72.9802 31.3028 73.9203 31.9217 75.5915 31.9217C77.3671 32.0249 78.9339 31.1996 78.9339 29.4459Z" fill="#242424"/>
<path d="M28.8304 12L20.1514 14.4351L11.4723 12L8 12.9747V35.4244L11.4723 36.3991L20.1514 33.964L28.8304 36.4025L32.3027 35.4278V12.9747L28.8304 12ZM25.3581 28.7494L20.1514 27.2856L14.9446 28.7494V19.6497L20.1514 21.1135L25.3581 19.6497V28.7494Z" fill="#FF3158"/>
<path d="M20.1514 16.3844V21.1134L11.4723 18.6749V36.399L8 35.4243V12.9746L20.1514 16.3844Z" fill="#C00033"/>
<path d="M25.3591 30.6987L20.1523 29.2349V33.9638L28.8314 36.3989V18.6748L25.3591 19.6495V30.6987Z" fill="#C00033"/>
<path d="M28.8304 12L32.3027 12.9747L20.1514 16.3845L8 12.9747L11.4723 12L20.1514 14.4351L28.8304 12Z" fill="#FF7788"/>
<path d="M20.1521 27.2856L25.3588 28.7495V30.6989L20.1521 29.2351L14.9453 30.6989V28.7495L20.1521 27.2856Z" fill="#FF7788"/>
</svg>
